<svg width="91" height="34" viewBox="0 0 91 34" fill="none" xmlns="http://www.w3.org/2000/svg">
<path d="M8.73545 13.4105H23.576V20.1686H8.73545V13.4105ZM9.37474 26.0135H26.0875V33H0.424742V1.03574H25.4939V8.02221H9.37474V26.0135Z" fill="#5CB34E"/>
<path d="M27.9964 30.5342L30.6905 24.187C32.0604 24.8872 33.4912 25.4199 34.9829 25.7852C36.4746 26.1505 37.9206 26.3636 39.3209 26.4245C40.7212 26.4854 41.9846 26.3941 43.1109 26.1505C44.2677 25.8765 45.181 25.4656 45.8507 24.9176C46.5205 24.3696 46.8553 23.6543 46.8553 22.7714C46.8553 21.7973 46.4444 21.0971 45.6224 20.6709C44.8309 20.2143 43.7807 19.986 42.4717 19.986H34.2979V13.3648H41.741C42.9587 13.3648 43.9024 13.1213 44.5722 12.6342C45.2419 12.1471 45.5768 11.4926 45.5768 10.6707C45.5768 9.87918 45.2876 9.25512 44.7092 8.79849C44.1308 8.31141 43.3545 7.97655 42.3803 7.79389C41.4062 7.5808 40.3103 7.50469 39.0926 7.56558C37.8749 7.62646 36.6115 7.85478 35.3025 8.25053C33.9935 8.61583 32.7302 9.11813 31.5125 9.75742L28.864 2.99926C31.0254 1.93378 33.2934 1.20317 35.6678 0.80742C38.0423 0.411672 40.3559 0.320346 42.6087 0.533442C44.8614 0.746536 46.901 1.24883 48.7275 2.04033C50.5541 2.80138 52.0001 3.82119 53.0655 5.09977C54.1614 6.37834 54.7094 7.88522 54.7094 9.62042C54.7094 11.1425 54.2984 12.4972 53.4765 13.6845C52.6546 14.8717 51.5434 15.8002 50.1431 16.4699C48.7427 17.1396 47.1293 17.4745 45.3028 17.4745L45.5311 15.5566C47.6316 15.5566 49.4581 15.922 51.0107 16.6526C52.5937 17.3832 53.8114 18.3878 54.6637 19.6663C55.5466 20.9145 55.988 22.3605 55.988 24.0043C55.988 25.5569 55.577 26.942 54.7551 28.1597C53.9636 29.3469 52.8524 30.3515 51.4217 31.1735C49.9909 31.9954 48.347 32.6043 46.49 33C44.6635 33.4262 42.7 33.6241 40.5995 33.5936C38.499 33.5936 36.368 33.3349 34.2066 32.8173C32.0757 32.2998 30.0056 31.5388 27.9964 30.5342Z" fill="#2F83BF"/>
<path d="M80.375 33L71.3793 17.7941L78.6398 13.5018L90.5579 33H80.375ZM60.0092 33V1.03574H69.0049V33H60.0092ZM66.402 20.7623V13.4561H78.0005V20.7623H66.402ZM79.5074 17.9768L71.151 17.0635L80.9686 1.03574H90.4666L79.5074 17.9768Z" fill="#E23838"/>
</svg>
