<svg width="24" height="23" viewBox="0 0 24 23" fill="none" xmlns="http://www.w3.org/2000/svg">
<path fill-rule="evenodd" clip-rule="evenodd" d="M2.96792e-07 1.88829C2.96792e-07 1.38748 0.21125 0.90719 0.587278 0.553068C0.963305 0.198946 1.47331 2.51735e-06 2.00509 2.51735e-06H21.9927C22.2563 -0.000402828 22.5173 0.0481475 22.7609 0.142874C23.0045 0.2376 23.2258 0.376642 23.4123 0.552039C23.5987 0.727436 23.7466 0.935744 23.8475 1.16504C23.9483 1.39433 24.0001 1.6401 24 1.88829V20.7115C24.0003 20.9598 23.9486 21.2056 23.8479 21.435C23.7472 21.6644 23.5994 21.8729 23.4131 22.0484C23.2268 22.224 23.0055 22.3633 22.762 22.4582C22.5184 22.5532 22.2574 22.602 21.9938 22.6019H2.00509C1.74169 22.6019 1.48086 22.553 1.23752 22.458C0.994184 22.3631 0.773096 22.2239 0.586892 22.0484C0.400688 21.873 0.253017 21.6647 0.152316 21.4355C0.0516145 21.2063 -0.000143013 20.9606 2.96792e-07 20.7126V1.88829ZM9.49964 8.61748H12.7495V10.1544C13.2185 9.27088 14.4185 8.4757 16.2218 8.4757C19.6789 8.4757 20.4982 10.2356 20.4982 13.4646V19.4458H16.9996V14.2001C16.9996 12.3612 16.5305 11.3235 15.3393 11.3235C13.6865 11.3235 12.9993 12.4423 12.9993 14.2001V19.4458H9.49964V8.61748ZM3.49964 19.3051H6.99927V8.4757H3.49964V19.3041V19.3051ZM7.5 4.94365C7.5066 5.22583 7.45328 5.50642 7.34317 5.76894C7.23306 6.03146 7.06838 6.27062 6.8588 6.47239C6.64921 6.67416 6.39894 6.83447 6.12268 6.94392C5.84641 7.05337 5.54972 7.10975 5.25 7.10975C4.95028 7.10975 4.65359 7.05337 4.37732 6.94392C4.10106 6.83447 3.85079 6.67416 3.6412 6.47239C3.43162 6.27062 3.26694 6.03146 3.15683 5.76894C3.04672 5.50642 2.9934 5.22583 3 4.94365C3.01295 4.38975 3.25569 3.86265 3.67624 3.47523C4.09678 3.08781 4.6617 2.87087 5.25 2.87087C5.8383 2.87087 6.40322 3.08781 6.82376 3.47523C7.24431 3.86265 7.48705 4.38975 7.5 4.94365Z" fill="#010851" fill-opacity="0.5"/>
</svg>
