<svg width="24" height="23" viewBox="0 0 24 23" fill="none" xmlns="http://www.w3.org/2000/svg">
<path fill-rule="evenodd" clip-rule="evenodd" d="M7.05273 0.0678056C8.33236 0.0123283 8.74036 0 12 0C15.2596 0 15.6676 0.0133556 16.9462 0.0678056C18.2247 0.122256 19.0975 0.314371 19.8611 0.592785C20.6607 0.877363 21.3862 1.32221 21.9862 1.89753C22.5971 2.46155 23.0684 3.14371 23.3695 3.89779C23.6662 4.61695 23.8691 5.43883 23.928 6.64084C23.9869 7.84798 24 8.23222 24 11.3009C24 14.3707 23.9858 14.7549 23.928 15.96C23.8702 17.162 23.6662 17.9839 23.3695 18.703C23.0684 19.4572 22.5963 20.1405 21.9862 20.7054C21.3862 21.2807 20.6607 21.7245 19.8611 22.0081C19.0975 22.2875 18.2247 22.4786 16.9484 22.5341C15.6676 22.5895 15.2596 22.6019 12 22.6019C8.74036 22.6019 8.33236 22.5885 7.05273 22.5341C5.77636 22.4796 4.90364 22.2875 4.14 22.0081C3.33919 21.7245 2.61362 21.2799 2.01382 20.7054C1.40332 20.141 0.930889 19.458 0.629455 18.7041C0.333818 17.9849 0.130909 17.163 0.072 15.961C0.0130909 14.7539 0 14.3697 0 11.3009C0 8.23119 0.0141818 7.84696 0.072 6.64289C0.129818 5.43883 0.333818 4.61695 0.629455 3.89779C0.931334 3.1438 1.40413 2.46084 2.01491 1.8965C2.61386 1.3217 3.3387 0.876792 4.13891 0.592785C4.90255 0.314371 5.77527 0.123283 7.05164 0.0678056H7.05273ZM16.8491 2.10197C15.5836 2.04752 15.204 2.03622 12 2.03622C8.796 2.03622 8.41636 2.04752 7.15091 2.10197C5.98036 2.15231 5.34545 2.33621 4.92218 2.49134C4.36255 2.69681 3.96218 2.9403 3.54218 3.33583C3.14405 3.7006 2.83765 4.14465 2.64545 4.63544C2.48073 5.03405 2.28545 5.63197 2.232 6.73433C2.17418 7.92606 2.16218 8.28358 2.16218 11.3009C2.16218 14.3183 2.17418 14.6758 2.232 15.8675C2.28545 16.9699 2.48073 17.5678 2.64545 17.9664C2.83745 18.4565 3.144 18.9013 3.54218 19.266C3.92945 19.641 4.40182 19.9297 4.92218 20.1105C5.34545 20.2657 5.98036 20.4496 7.15091 20.4999C8.41636 20.5543 8.79491 20.5656 12 20.5656C15.2051 20.5656 15.5836 20.5543 16.8491 20.4999C18.0196 20.4496 18.6545 20.2657 19.0778 20.1105C19.6375 19.9051 20.0378 19.6616 20.4578 19.266C20.856 18.9013 21.1625 18.4565 21.3545 17.9664C21.5193 17.5678 21.7145 16.9699 21.768 15.8675C21.8258 14.6758 21.8378 14.3183 21.8378 11.3009C21.8378 8.28358 21.8258 7.92606 21.768 6.73433C21.7145 5.63197 21.5193 5.03405 21.3545 4.63544C21.1364 4.1084 20.8778 3.73136 20.4578 3.33583C20.0705 2.96092 19.5989 2.67237 19.0778 2.49134C18.6545 2.33621 18.0196 2.15231 16.8491 2.10197ZM10.4673 14.7847C11.3233 15.1203 12.2764 15.1656 13.1639 14.9128C14.0514 14.6601 14.8182 14.1251 15.3334 13.399C15.8485 12.673 16.0801 11.8011 15.9884 10.9322C15.8968 10.0633 15.4876 9.25133 14.8309 8.63494C14.4123 8.24092 13.906 7.93923 13.3487 7.75156C12.7914 7.5639 12.1968 7.49494 11.6078 7.54966C11.0188 7.60437 10.45 7.78139 9.94233 8.06797C9.43468 8.35456 9.00081 8.74358 8.67197 9.20703C8.34312 9.67047 8.12748 10.1968 8.04056 10.7482C7.95365 11.2995 7.99762 11.8622 8.16932 12.3956C8.34101 12.929 8.63616 13.42 9.03351 13.8331C9.43087 14.2462 9.92054 14.5712 10.4673 14.7847ZM7.63855 7.19356C8.2113 6.65417 8.89126 6.2263 9.6396 5.93439C10.3879 5.64247 11.19 5.49223 12 5.49223C12.81 5.49223 13.6121 5.64247 14.3604 5.93439C15.1087 6.2263 15.7887 6.65417 16.3615 7.19356C16.9342 7.73295 17.3885 8.37329 17.6985 9.07804C18.0085 9.78278 18.168 10.5381 18.168 11.3009C18.168 12.0637 18.0085 12.8191 17.6985 13.5238C17.3885 14.2286 16.9342 14.8689 16.3615 15.4083C15.2047 16.4977 13.6359 17.1096 12 17.1096C10.3641 17.1096 8.79528 16.4977 7.63855 15.4083C6.48182 14.319 5.83197 12.8415 5.83197 11.3009C5.83197 9.76037 6.48182 8.2829 7.63855 7.19356ZM19.536 6.35729C19.6779 6.2312 19.7916 6.07957 19.8701 5.91139C19.9487 5.7432 19.9907 5.56188 19.9935 5.37815C19.9964 5.19441 19.9601 5.01201 19.8867 4.84174C19.8134 4.67147 19.7045 4.51679 19.5665 4.38686C19.4285 4.25693 19.2643 4.15438 19.0835 4.08531C18.9027 4.01623 18.709 3.98201 18.5139 3.98469C18.3188 3.98737 18.1263 4.02689 17.9477 4.1009C17.7691 4.17491 17.6081 4.28192 17.4742 4.41558C17.2138 4.67553 17.0712 5.02082 17.0768 5.37815C17.0823 5.73547 17.2355 6.0767 17.5038 6.32939C17.7721 6.58208 18.1345 6.72635 18.5139 6.73155C18.8933 6.73676 19.26 6.60251 19.536 6.35729Z" fill="#010851" fill-opacity="0.5"/>
</svg>
