<svg width="24" height="23" viewBox="0 0 24 23" fill="none" xmlns="http://www.w3.org/2000/svg">
<path d="M24 2.68099C23.1174 3.13405 22.1693 3.44016 21.1726 3.57853C22.201 2.86563 22.9704 1.74362 23.3373 0.421852C22.371 1.08672 21.3135 1.55472 20.2107 1.8055C19.4691 0.888209 18.4868 0.280213 17.4164 0.0759077C16.3459 -0.128397 15.2472 0.0824188 14.2907 0.675626C13.3343 1.26883 12.5737 2.21124 12.127 3.35654C11.6803 4.50183 11.5725 5.78594 11.8203 7.00949C9.86244 6.89561 7.94711 6.30609 6.19863 5.2792C4.45016 4.25231 2.90761 2.81099 1.6711 1.04878C1.2483 1.89366 1.0052 2.87324 1.0052 3.91648C1.00473 4.85564 1.20437 5.78042 1.58641 6.60876C1.96846 7.4371 2.52109 8.14339 3.19528 8.66497C2.4134 8.63615 1.64877 8.3914 0.965031 7.9511V8.02457C0.964952 9.34178 1.35827 10.6185 2.07823 11.638C2.7982 12.6575 3.80048 13.357 4.915 13.6179C4.18968 13.8453 3.42923 13.8788 2.69109 13.7159C3.00555 14.8493 3.61807 15.8404 4.44291 16.5504C5.26776 17.2605 6.26363 17.654 7.29111 17.6758C5.5469 19.262 3.39282 20.1224 1.17537 20.1186C0.782575 20.1188 0.39011 20.0922 0 20.039C2.25083 21.7156 4.87097 22.6053 7.5469 22.6019C16.6053 22.6019 21.5573 13.9106 21.5573 6.37276C21.5573 6.12787 21.552 5.88053 21.5425 5.63563C22.5057 4.82868 23.3372 3.82942 23.9979 2.68467L24 2.68099Z" fill="#010851" fill-opacity="0.5"/>
</svg>
